<svg width="62" height="70" viewBox="0 0 62 70" fill="none" xmlns="http://www.w3.org/2000/svg">
<path d="M23.6673 12.5379H22.723V11.5936C22.723 11.0271 22.2638 10.5677 21.6971 10.5677C21.1304 10.5677 20.6711 11.0271 20.6711 11.5936V12.5379H19.7268C19.1601 12.5379 18.7009 12.9973 18.7009 13.5639C18.7009 14.1304 19.1601 14.5898 19.7268 14.5898H20.6711V15.5343C20.6711 16.1008 21.1304 16.5602 21.6971 16.5602C22.2638 16.5602 22.723 16.1008 22.723 15.5343V14.5898H23.6673C24.234 14.5898 24.6933 14.1304 24.6933 13.5639C24.6933 12.9973 24.234 12.5379 23.6673 12.5379Z" fill="white"/>
<path d="M42.2719 12.5379H41.3276V11.5936C41.3276 11.0271 40.8684 10.5677 40.3017 10.5677C39.735 10.5677 39.2757 11.0271 39.2757 11.5936V12.5379H38.3314C37.7647 12.5379 37.3055 12.9973 37.3055 13.5639C37.3055 14.1304 37.7647 14.5898 38.3314 14.5898H39.2757V15.5343C39.2757 16.1008 39.735 16.5602 40.3017 16.5602C40.8684 16.5602 41.3276 16.1008 41.3276 15.5343V14.5898H42.2719C42.8386 14.5898 43.2979 14.1304 43.2979 13.5639C43.2979 12.9973 42.8386 12.5379 42.2719 12.5379Z" fill="white"/>
<path d="M23.6673 26.6295H22.723V25.6852C22.723 25.1186 22.2638 24.6592 21.6971 24.6592C21.1304 24.6592 20.6711 25.1186 20.6711 25.6852V26.6295H19.7268C19.1601 26.6295 18.7009 27.0889 18.7009 27.6555C18.7009 28.222 19.1601 28.6814 19.7268 28.6814H20.6711V29.6257C20.6711 30.1923 21.1304 30.6517 21.6971 30.6517C22.2638 30.6517 22.723 30.1923 22.723 29.6257V28.6814H23.6673C24.234 28.6814 24.6933 28.222 24.6933 27.6555C24.6933 27.0889 24.234 26.6295 23.6673 26.6295Z" fill="white"/>
<path d="M42.272 26.6295H41.3277V25.6852C41.3277 25.1186 40.8684 24.6592 40.3017 24.6592C39.735 24.6592 39.2758 25.1186 39.2758 25.6852V26.6295H38.3315C37.7648 26.6295 37.3055 27.0889 37.3055 27.6555C37.3055 28.222 37.7648 28.6814 38.3315 28.6814H39.2758V29.6257C39.2758 30.1923 39.735 30.6517 40.3017 30.6517C40.8684 30.6517 41.3277 30.1923 41.3277 29.6257V28.6814H42.272C42.8387 28.6814 43.2979 28.222 43.2979 27.6555C43.2979 27.0889 42.8387 26.6295 42.272 26.6295Z" fill="white"/>
<path d="M59.4561 29.0518H45.8792C44.7194 29.0518 43.7758 29.9953 43.7758 31.1551V33.9326C43.7758 35.0924 44.7193 36.0359 45.8792 36.0359H46.0765V40.68C45.1632 39.9606 44.0126 39.5297 42.7626 39.5297H18.9676C17.7176 39.5297 16.5669 39.9605 15.6538 40.68V36.026H16.121C17.2808 36.026 18.2244 35.0825 18.2244 33.9227V31.1451C18.2244 29.9853 17.2809 29.0418 16.121 29.0418H2.54409C1.38431 29.0418 0.440674 29.9853 0.440674 31.1451V33.9227C0.440674 35.0825 1.38417 36.026 2.54409 36.026H3.01126V49.1205C3.01126 51.2153 4.62468 52.9395 6.6741 53.1181V55.1644C6.6741 56.7895 7.99631 58.1115 9.62135 58.1115H11.9724V67.9481H10.5035C9.93676 67.9481 9.47752 68.4074 9.47752 68.974C9.47752 69.5406 9.93676 69.9999 10.5035 69.9999H20.7547C21.3214 69.9999 21.7806 69.5406 21.7806 68.974C21.7806 68.4074 21.3214 67.9481 20.7547 67.9481H19.2857V58.1115H42.4447V67.9481H40.9758C40.4091 67.9481 39.9499 68.4074 39.9499 68.974C39.9499 69.5406 40.4091 69.9999 40.9758 69.9999H51.2271C51.7938 69.9999 52.2531 69.5406 52.2531 68.974C52.2531 68.4074 51.7938 67.9481 51.2271 67.9481H49.7581V58.1115H52.1092C53.7343 58.1115 55.0563 56.7895 55.0563 55.1644V53.1181C57.1058 52.9396 58.7192 51.2153 58.7192 49.1205V36.0359H59.4564C60.6162 36.0359 61.5598 35.0924 61.5598 33.9326V31.1551C61.5595 29.9954 60.616 29.0518 59.4561 29.0518ZM18.9676 41.5818H42.7627C44.5901 41.5818 46.0766 43.0683 46.0766 44.8957V51.0825H15.6537V44.8957C15.6537 43.0683 17.1403 41.5818 18.9676 41.5818ZM2.54409 33.9741C2.51579 33.9741 2.49269 33.951 2.49269 33.9227V31.1451C2.49269 31.1168 2.51579 31.0937 2.54409 31.0937H16.121C16.1493 31.0937 16.1724 31.1168 16.1724 31.1451V33.9227C16.1724 33.951 16.1493 33.9741 16.121 33.9741H2.54409ZM7.0252 51.0827C5.94334 51.0825 5.06314 50.2023 5.06314 49.1206V36.0261H13.6018V51.0827H7.0252ZM17.2337 67.9481H14.0244V58.1117H17.2337V67.9481ZM47.7059 67.9481H44.4966V58.1117H47.7059V67.9481ZM53.0042 55.1644C53.0042 55.6581 52.6026 56.0597 52.1091 56.0597H9.62135C9.12766 56.0597 8.72598 55.6581 8.72598 55.1644V53.1344H53.0042V55.1644ZM56.667 49.1206C56.667 50.2025 55.7868 51.0825 54.705 51.0825H48.1285V36.0361H56.667V49.1206ZM59.5076 33.9328C59.5076 33.9611 59.4845 33.9842 59.4562 33.9842H45.8794C45.8511 33.9842 45.8279 33.9611 45.8279 33.9328V31.1552C45.8279 31.1269 45.8511 31.1038 45.8794 31.1038H59.4562C59.4845 31.1038 59.5076 31.1269 59.5076 31.1552V33.9328Z" fill="white"/>
<path d="M53.6956 8.45511C53.6959 3.793 49.9029 0 45.2408 0H16.4865C11.8242 0 8.03135 3.793 8.03135 8.45511V25.269C8.03148 25.8357 8.49072 26.2949 9.05742 26.2949C9.62412 26.2949 10.0834 25.8355 10.0834 25.269V8.45511C10.0834 4.92435 12.9558 2.05188 16.4865 2.05188H45.2407C48.7713 2.05188 51.6438 4.92435 51.6438 8.4599L51.7232 25.2737C51.7259 25.8387 52.1846 26.2949 52.749 26.2949H52.7539C53.3206 26.2922 53.7778 25.8307 53.7751 25.264L53.6956 8.45511Z" fill="white"/>
</svg>
